{
	"asset":{
		"generator":"Khronos glTF Blender I/O v5.1.20",
		"version":"2.0"
	},
	"scene":0,
	"scenes":[
		{
			"name":"Scene",
			"nodes":[
				0,
				1,
				2,
				3,
				4,
				5,
				6,
				7,
				8,
				9,
				10,
				11
			]
		}
	],
	"nodes":[
		{
			"mesh":0,
			"name":"Continuous Stone Facade",
			"translation":[
				0,
				1.7999999523162842,
				-0.10999999940395355
			]
		},
		{
			"mesh":1,
			"name":"Window 1 Deep Jamb And Soffit"
		},
		{
			"mesh":2,
			"name":"Window 1 Rear Stone Lip"
		},
		{
			"mesh":3,
			"name":"Window 1 Deep Sill",
			"translation":[
				-0.9399999976158142,
				0.24500000476837158,
				-0.41999998688697815
			]
		},
		{
			"mesh":4,
			"name":"Window 2 Deep Jamb And Soffit"
		},
		{
			"mesh":5,
			"name":"Window 2 Rear Stone Lip"
		},
		{
			"mesh":6,
			"name":"Window 2 Deep Sill",
			"translation":[
				0.9399999976158142,
				0.24500000476837158,
				-0.41999998688697815
			]
		},
		{
			"mesh":7,
			"name":"CC BY Gothic Window 1",
			"translation":[
				-0.9399999976158142,
				1.75,
				-0.09200000017881393
			]
		},
		{
			"mesh":8,
			"name":"CC BY Gothic Window 2",
			"translation":[
				0.9399999976158142,
				1.75,
				-0.09200000017881393
			]
		},
		{
			"mesh":9,
			"name":"Shared Center Pier",
			"translation":[
				0,
				1.659999966621399,
				-0.15000000596046448
			]
		},
		{
			"mesh":10,
			"name":"Continuous Bottom Stone Course",
			"translation":[
				0,
				0.12999999523162842,
				-0.18000000715255737
			]
		},
		{
			"mesh":11,
			"name":"Continuous Top Stone Course",
			"translation":[
				0,
				3.4700000286102295,
				-0.18000000715255737
			]
		}
	],
	"materials":[
		{
			"doubleSided":true,
			"name":"Weathered medieval blocks",
			"normalTexture":{
				"index":0,
				"scale":0.7200000286102295
			},
			"pbrMetallicRoughness":{
				"baseColorTexture":{
					"index":1
				},
				"metallicFactor":0,
				"metallicRoughnessTexture":{
					"index":2
				},
				"roughnessFactor":1.1944444179534912
			}
		},
		{
			"doubleSided":true,
			"name":"Deep reveal stone",
			"normalTexture":{
				"index":3,
				"scale":0.7200000286102295
			},
			"pbrMetallicRoughness":{
				"baseColorTexture":{
					"index":4
				},
				"metallicFactor":0,
				"metallicRoughnessTexture":{
					"index":5
				},
				"roughnessFactor":1.2777777910232544
			}
		},
		{
			"doubleSided":true,
			"name":"Cut medieval stone",
			"normalTexture":{
				"index":6,
				"scale":0.7200000286102295
			},
			"pbrMetallicRoughness":{
				"baseColorTexture":{
					"index":7
				},
				"metallicFactor":0,
				"metallicRoughnessTexture":{
					"index":8
				},
				"roughnessFactor":1.0277777910232544
			}
		},
		{
			"doubleSided":true,
			"name":"lambert1",
			"normalTexture":{
				"index":9
			},
			"occlusionTexture":{
				"index":10
			},
			"pbrMetallicRoughness":{
				"baseColorTexture":{
					"index":11
				},
				"metallicRoughnessTexture":{
					"index":10
				}
			}
		}
	],
	"meshes":[
		{
			"name":"Cube",
			"primitives":[
				{
					"attributes":{
						"POSITION":0,
						"NORMAL":1,
						"TEXCOORD_0":2
					},
					"indices":3,
					"material":0
				}
			]
		},
		{
			"name":"Window 1 Deep Jamb And SoffitMesh",
			"primitives":[
				{
					"attributes":{
						"POSITION":4,
						"NORMAL":5,
						"TEXCOORD_0":6,
						"TANGENT":7
					},
					"indices":8,
					"material":1
				}
			]
		},
		{
			"name":"Window 1 Rear Stone Lip",
			"primitives":[
				{
					"attributes":{
						"POSITION":9,
						"NORMAL":10,
						"TEXCOORD_0":11,
						"TANGENT":12
					},
					"indices":13,
					"material":1
				}
			]
		},
		{
			"name":"Cube.001",
			"primitives":[
				{
					"attributes":{
						"POSITION":14,
						"NORMAL":15,
						"TEXCOORD_0":16,
						"TANGENT":17
					},
					"indices":18,
					"material":2
				}
			]
		},
		{
			"name":"Window 2 Deep Jamb And SoffitMesh",
			"primitives":[
				{
					"attributes":{
						"POSITION":19,
						"NORMAL":20,
						"TEXCOORD_0":21,
						"TANGENT":22
					},
					"indices":8,
					"material":1
				}
			]
		},
		{
			"name":"Window 2 Rear Stone Lip",
			"primitives":[
				{
					"attributes":{
						"POSITION":23,
						"NORMAL":24,
						"TEXCOORD_0":25,
						"TANGENT":26
					},
					"indices":13,
					"material":1
				}
			]
		},
		{
			"name":"Cube.002",
			"primitives":[
				{
					"attributes":{
						"POSITION":27,
						"NORMAL":28,
						"TEXCOORD_0":29,
						"TANGENT":30
					},
					"indices":18,
					"material":2
				}
			]
		},
		{
			"name":"defaultMaterial.001",
			"primitives":[
				{
					"attributes":{
						"POSITION":31,
						"NORMAL":32,
						"TEXCOORD_0":33
					},
					"indices":34,
					"material":3
				}
			]
		},
		{
			"name":"defaultMaterial.001",
			"primitives":[
				{
					"attributes":{
						"POSITION":35,
						"NORMAL":36,
						"TEXCOORD_0":37
					},
					"indices":34,
					"material":3
				}
			]
		},
		{
			"name":"Cube.003",
			"primitives":[
				{
					"attributes":{
						"POSITION":38,
						"NORMAL":39,
						"TEXCOORD_0":40,
						"TANGENT":41
					},
					"indices":42,
					"material":2
				}
			]
		},
		{
			"name":"Cube.004",
			"primitives":[
				{
					"attributes":{
						"POSITION":43,
						"NORMAL":44,
						"TEXCOORD_0":45,
						"TANGENT":46
					},
					"indices":47,
					"material":2
				}
			]
		},
		{
			"name":"Cube.005",
			"primitives":[
				{
					"attributes":{
						"POSITION":48,
						"NORMAL":49,
						"TEXCOORD_0":50,
						"TANGENT":51
					},
					"indices":47,
					"material":2
				}
			]
		}
	],
	"textures":[
		{
			"sampler":0,
			"source":0
		},
		{
			"sampler":0,
			"source":1
		},
		{
			"sampler":0,
			"source":2
		},
		{
			"sampler":0,
			"source":0
		},
		{
			"sampler":0,
			"source":1
		},
		{
			"sampler":0,
			"source":2
		},
		{
			"sampler":0,
			"source":0
		},
		{
			"sampler":0,
			"source":1
		},
		{
			"sampler":0,
			"source":2
		},
		{
			"sampler":0,
			"source":3
		},
		{
			"sampler":0,
			"source":4
		},
		{
			"sampler":0,
			"source":5
		}
	],
	"images":[
		{
			"mimeType":"image/jpeg",
			"name":"medieval_blocks_03_nor_gl_2k",
			"uri":"medieval_blocks_03_nor_gl_2k.jpg"
		},
		{
			"mimeType":"image/jpeg",
			"name":"medieval_blocks_03_diff_2k",
			"uri":"medieval_blocks_03_diff_2k.jpg"
		},
		{
			"mimeType":"image/jpeg",
			"name":"medieval_blocks_03_rough_2k",
			"uri":"medieval_blocks_03_rough_2k.jpg"
		},
		{
			"mimeType":"image/jpeg",
			"name":"Image_2",
			"uri":"Image_2.jpg"
		},
		{
			"mimeType":"image/jpeg",
			"name":"Image_1",
			"uri":"Image_1.jpg"
		},
		{
			"mimeType":"image/jpeg",
			"name":"Image_0",
			"uri":"Image_0.jpg"
		}
	],
	"accessors":[
		{
			"bufferView":0,
			"componentType":5126,
			"count":4143,
			"max":[
				3.200000047683716,
				1.7999999523162842,
				0.10999999940395355
			],
			"min":[
				-3.200000047683716,
				-1.8015989065170288,
				-0.10999999940395355
			],
			"type":"VEC3"
		},
		{
			"bufferView":1,
			"componentType":5126,
			"count":4143,
			"type":"VEC3"
		},
		{
			"bufferView":2,
			"componentType":5126,
			"count":4143,
			"type":"VEC2"
		},
		{
			"bufferView":3,
			"componentType":5123,
			"count":8736,
			"type":"SCALAR"
		},
		{
			"bufferView":4,
			"componentType":5126,
			"count":252,
			"max":[
				-0.019999999552965164,
				3.055000066757202,
				-0.15839999914169312
			],
			"min":[
				-1.8600000143051147,
				0.30000001192092896,
				-0.8199999928474426
			],
			"type":"VEC3"
		},
		{
			"bufferView":5,
			"componentType":5126,
			"count":252,
			"type":"VEC3"
		},
		{
			"bufferView":6,
			"componentType":5126,
			"count":252,
			"type":"VEC2"
		},
		{
			"bufferView":7,
			"componentType":5126,
			"count":252,
			"type":"VEC4"
		},
		{
			"bufferView":8,
			"componentType":5123,
			"count":378,
			"type":"SCALAR"
		},
		{
			"bufferView":9,
			"componentType":5126,
			"count":780,
			"max":[
				-0.0753081887960434,
				3.072246789932251,
				-0.75
			],
			"min":[
				-1.804122805595398,
				0.34322530031204224,
				-0.8400000333786011
			],
			"type":"VEC3"
		},
		{
			"bufferView":10,
			"componentType":5126,
			"count":780,
			"type":"VEC3"
		},
		{
			"bufferView":11,
			"componentType":5126,
			"count":780,
			"type":"VEC2"
		},
		{
			"bufferView":12,
			"componentType":5126,
			"count":780,
			"type":"VEC4"
		},
		{
			"bufferView":13,
			"componentType":5123,
			"count":4248,
			"type":"SCALAR"
		},
		{
			"bufferView":14,
			"componentType":5126,
			"count":464,
			"max":[
				1.0499999523162842,
				0.0949999988079071,
				0.4018000066280365
			],
			"min":[
				-1.0499999523162842,
				-0.0949999988079071,
				-0.4018000066280365
			],
			"type":"VEC3"
		},
		{
			"bufferView":15,
			"componentType":5126,
			"count":464,
			"type":"VEC3"
		},
		{
			"bufferView":16,
			"componentType":5126,
			"count":464,
			"type":"VEC2"
		},
		{
			"bufferView":17,
			"componentType":5126,
			"count":464,
			"type":"VEC4"
		},
		{
			"bufferView":18,
			"componentType":5123,
			"count":900,
			"type":"SCALAR"
		},
		{
			"bufferView":19,
			"componentType":5126,
			"count":252,
			"max":[
				1.8600000143051147,
				3.055000066757202,
				-0.15839999914169312
			],
			"min":[
				0.019999997690320015,
				0.30000001192092896,
				-0.8199999928474426
			],
			"type":"VEC3"
		},
		{
			"bufferView":20,
			"componentType":5126,
			"count":252,
			"type":"VEC3"
		},
		{
			"bufferView":21,
			"componentType":5126,
			"count":252,
			"type":"VEC2"
		},
		{
			"bufferView":22,
			"componentType":5126,
			"count":252,
			"type":"VEC4"
		},
		{
			"bufferView":23,
			"componentType":5126,
			"count":780,
			"max":[
				1.8046917915344238,
				3.072246789932251,
				-0.75
			],
			"min":[
				0.07587717473506927,
				0.34322530031204224,
				-0.8400000333786011
			],
			"type":"VEC3"
		},
		{
			"bufferView":24,
			"componentType":5126,
			"count":780,
			"type":"VEC3"
		},
		{
			"bufferView":25,
			"componentType":5126,
			"count":780,
			"type":"VEC2"
		},
		{
			"bufferView":26,
			"componentType":5126,
			"count":780,
			"type":"VEC4"
		},
		{
			"bufferView":27,
			"componentType":5126,
			"count":464,
			"max":[
				1.0499999523162842,
				0.0949999988079071,
				0.4018000066280365
			],
			"min":[
				-1.0499999523162842,
				-0.0949999988079071,
				-0.4018000066280365
			],
			"type":"VEC3"
		},
		{
			"bufferView":28,
			"componentType":5126,
			"count":464,
			"type":"VEC3"
		},
		{
			"bufferView":29,
			"componentType":5126,
			"count":464,
			"type":"VEC2"
		},
		{
			"bufferView":30,
			"componentType":5126,
			"count":464,
			"type":"VEC4"
		},
		{
			"bufferView":31,
			"componentType":5126,
			"count":2890,
			"max":[
				1.0621803998947144,
				1.590000033378601,
				0.07999999821186066
			],
			"min":[
				-1.0621803998947144,
				-1.590000033378601,
				-0.07999999821186066
			],
			"type":"VEC3"
		},
		{
			"bufferView":32,
			"componentType":5126,
			"count":2890,
			"type":"VEC3"
		},
		{
			"bufferView":33,
			"componentType":5126,
			"count":2890,
			"type":"VEC2"
		},
		{
			"bufferView":34,
			"componentType":5123,
			"count":9597,
			"type":"SCALAR"
		},
		{
			"bufferView":35,
			"componentType":5126,
			"count":2890,
			"max":[
				1.0621803998947144,
				1.590000033378601,
				0.07999999821186066
			],
			"min":[
				-1.0621803998947144,
				-1.590000033378601,
				-0.07999999821186066
			],
			"type":"VEC3"
		},
		{
			"bufferView":36,
			"componentType":5126,
			"count":2890,
			"type":"VEC3"
		},
		{
			"bufferView":37,
			"componentType":5126,
			"count":2890,
			"type":"VEC2"
		},
		{
			"bufferView":38,
			"componentType":5126,
			"count":730,
			"max":[
				0.009999999776482582,
				1.590000033378601,
				0.14000000059604645
			],
			"min":[
				-0.009999999776482582,
				-1.590000033378601,
				-0.14000000059604645
			],
			"type":"VEC3"
		},
		{
			"bufferView":39,
			"componentType":5126,
			"count":730,
			"type":"VEC3"
		},
		{
			"bufferView":40,
			"componentType":5126,
			"count":730,
			"type":"VEC2"
		},
		{
			"bufferView":41,
			"componentType":5126,
			"count":730,
			"type":"VEC4"
		},
		{
			"bufferView":42,
			"componentType":5123,
			"count":1284,
			"type":"SCALAR"
		},
		{
			"bufferView":43,
			"componentType":5126,
			"count":476,
			"max":[
				3.200000047683716,
				0.12999999523162842,
				0.17000000178813934
			],
			"min":[
				-3.200000047683716,
				-0.12999999523162842,
				-0.17000000178813934
			],
			"type":"VEC3"
		},
		{
			"bufferView":44,
			"componentType":5126,
			"count":476,
			"type":"VEC3"
		},
		{
			"bufferView":45,
			"componentType":5126,
			"count":476,
			"type":"VEC2"
		},
		{
			"bufferView":46,
			"componentType":5126,
			"count":476,
			"type":"VEC4"
		},
		{
			"bufferView":47,
			"componentType":5123,
			"count":900,
			"type":"SCALAR"
		},
		{
			"bufferView":48,
			"componentType":5126,
			"count":476,
			"max":[
				3.200000047683716,
				0.12999999523162842,
				0.17000000178813934
			],
			"min":[
				-3.200000047683716,
				-0.12999999523162842,
				-0.17000000178813934
			],
			"type":"VEC3"
		},
		{
			"bufferView":49,
			"componentType":5126,
			"count":476,
			"type":"VEC3"
		},
		{
			"bufferView":50,
			"componentType":5126,
			"count":476,
			"type":"VEC2"
		},
		{
			"bufferView":51,
			"componentType":5126,
			"count":476,
			"type":"VEC4"
		}
	],
	"bufferViews":[
		{
			"buffer":0,
			"byteLength":49716,
			"byteOffset":0,
			"target":34962
		},
		{
			"buffer":0,
			"byteLength":49716,
			"byteOffset":49716,
			"target":34962
		},
		{
			"buffer":0,
			"byteLength":33144,
			"byteOffset":99432,
			"target":34962
		},
		{
			"buffer":0,
			"byteLength":17472,
			"byteOffset":132576,
			"target":34963
		},
		{
			"buffer":0,
			"byteLength":3024,
			"byteOffset":150048,
			"target":34962
		},
		{
			"buffer":0,
			"byteLength":3024,
			"byteOffset":153072,
			"target":34962
		},
		{
			"buffer":0,
			"byteLength":2016,
			"byteOffset":156096,
			"target":34962
		},
		{
			"buffer":0,
			"byteLength":4032,
			"byteOffset":158112,
			"target":34962
		},
		{
			"buffer":0,
			"byteLength":756,
			"byteOffset":162144,
			"target":34963
		},
		{
			"buffer":0,
			"byteLength":9360,
			"byteOffset":162900,
			"target":34962
		},
		{
			"buffer":0,
			"byteLength":9360,
			"byteOffset":172260,
			"target":34962
		},
		{
			"buffer":0,
			"byteLength":6240,
			"byteOffset":181620,
			"target":34962
		},
		{
			"buffer":0,
			"byteLength":12480,
			"byteOffset":187860,
			"target":34962
		},
		{
			"buffer":0,
			"byteLength":8496,
			"byteOffset":200340,
			"target":34963
		},
		{
			"buffer":0,
			"byteLength":5568,
			"byteOffset":208836,
			"target":34962
		},
		{
			"buffer":0,
			"byteLength":5568,
			"byteOffset":214404,
			"target":34962
		},
		{
			"buffer":0,
			"byteLength":3712,
			"byteOffset":219972,
			"target":34962
		},
		{
			"buffer":0,
			"byteLength":7424,
			"byteOffset":223684,
			"target":34962
		},
		{
			"buffer":0,
			"byteLength":1800,
			"byteOffset":231108,
			"target":34963
		},
		{
			"buffer":0,
			"byteLength":3024,
			"byteOffset":232908,
			"target":34962
		},
		{
			"buffer":0,
			"byteLength":3024,
			"byteOffset":235932,
			"target":34962
		},
		{
			"buffer":0,
			"byteLength":2016,
			"byteOffset":238956,
			"target":34962
		},
		{
			"buffer":0,
			"byteLength":4032,
			"byteOffset":240972,
			"target":34962
		},
		{
			"buffer":0,
			"byteLength":9360,
			"byteOffset":245004,
			"target":34962
		},
		{
			"buffer":0,
			"byteLength":9360,
			"byteOffset":254364,
			"target":34962
		},
		{
			"buffer":0,
			"byteLength":6240,
			"byteOffset":263724,
			"target":34962
		},
		{
			"buffer":0,
			"byteLength":12480,
			"byteOffset":269964,
			"target":34962
		},
		{
			"buffer":0,
			"byteLength":5568,
			"byteOffset":282444,
			"target":34962
		},
		{
			"buffer":0,
			"byteLength":5568,
			"byteOffset":288012,
			"target":34962
		},
		{
			"buffer":0,
			"byteLength":3712,
			"byteOffset":293580,
			"target":34962
		},
		{
			"buffer":0,
			"byteLength":7424,
			"byteOffset":297292,
			"target":34962
		},
		{
			"buffer":0,
			"byteLength":34680,
			"byteOffset":304716,
			"target":34962
		},
		{
			"buffer":0,
			"byteLength":34680,
			"byteOffset":339396,
			"target":34962
		},
		{
			"buffer":0,
			"byteLength":23120,
			"byteOffset":374076,
			"target":34962
		},
		{
			"buffer":0,
			"byteLength":19194,
			"byteOffset":397196,
			"target":34963
		},
		{
			"buffer":0,
			"byteLength":34680,
			"byteOffset":416392,
			"target":34962
		},
		{
			"buffer":0,
			"byteLength":34680,
			"byteOffset":451072,
			"target":34962
		},
		{
			"buffer":0,
			"byteLength":23120,
			"byteOffset":485752,
			"target":34962
		},
		{
			"buffer":0,
			"byteLength":8760,
			"byteOffset":508872,
			"target":34962
		},
		{
			"buffer":0,
			"byteLength":8760,
			"byteOffset":517632,
			"target":34962
		},
		{
			"buffer":0,
			"byteLength":5840,
			"byteOffset":526392,
			"target":34962
		},
		{
			"buffer":0,
			"byteLength":11680,
			"byteOffset":532232,
			"target":34962
		},
		{
			"buffer":0,
			"byteLength":2568,
			"byteOffset":543912,
			"target":34963
		},
		{
			"buffer":0,
			"byteLength":5712,
			"byteOffset":546480,
			"target":34962
		},
		{
			"buffer":0,
			"byteLength":5712,
			"byteOffset":552192,
			"target":34962
		},
		{
			"buffer":0,
			"byteLength":3808,
			"byteOffset":557904,
			"target":34962
		},
		{
			"buffer":0,
			"byteLength":7616,
			"byteOffset":561712,
			"target":34962
		},
		{
			"buffer":0,
			"byteLength":1800,
			"byteOffset":569328,
			"target":34963
		},
		{
			"buffer":0,
			"byteLength":5712,
			"byteOffset":571128,
			"target":34962
		},
		{
			"buffer":0,
			"byteLength":5712,
			"byteOffset":576840,
			"target":34962
		},
		{
			"buffer":0,
			"byteLength":3808,
			"byteOffset":582552,
			"target":34962
		},
		{
			"buffer":0,
			"byteLength":7616,
			"byteOffset":586360,
			"target":34962
		}
	],
	"samplers":[
		{
			"magFilter":9729,
			"minFilter":9987
		}
	],
	"buffers":[
		{
			"byteLength":593976,
			"uri":"medieval_storm_window_shell.bin"
		}
	]
}
